<svg width="450" height="850" xmlns="http://www.w3.org/2000/svg">
 <!-- Created with Method Draw - http://github.com/duopixel/Method-Draw/ -->

 <g>
  <title>background</title>
  <rect fill="none" id="canvas_background" height="852" width="452" y="-1" x="-1"/>
  <g display="none" overflow="visible" y="0" x="0" height="100%" width="100%" id="canvasGrid">
   <rect fill="url(#gridpattern)" stroke-width="0" y="0" x="0" height="100%" width="100%"/>
  </g>
 </g>
 <g>
  <title>Layer 1</title>
  <ellipse stroke="#000000" ry="50.435239" rx="50.435239" id="svg_124" cy="189.092885" cx="75.214473" fill-opacity="null" stroke-width="0.5" fill="none"/>
  <ellipse stroke="#000000" ry="50.435239" rx="50.435239" id="svg_148" cy="255.180433" cx="121.301841" fill-opacity="null" stroke-width="0.5" fill="none"/>
  <g transform="rotate(90 225.43305969238278,466.48666381835943) " stroke="null" id="svg_140">
   <path stroke="#000000" id="svg_137" d="m186.996377,466.486701l-12.868181,-23.099536l23.137403,23.099536l-23.137403,23.099524l12.868181,-23.099524z" fill-opacity="null" stroke-opacity="null" stroke-width="0.3" fill="#000000"/>
   <path stroke="#000000" id="svg_138" d="m216.847712,466.4867l-19.582035,-35.151504l35.209127,35.151504l-35.209127,35.151485l19.582035,-35.151485z" fill-opacity="null" stroke-opacity="null" stroke-width="0.3" fill="#000000"/>
   <path stroke="#000000" id="svg_139" d="m255.752819,466.486709l-26.295889,-47.203473l47.280852,47.203473l-47.280852,47.203445l26.295889,-47.203445z" fill-opacity="null" stroke-opacity="null" stroke-width="0.3" fill="#000000"/>
  </g>
  <text font-weight="bold" stroke="#000000" xml:space="preserve" text-anchor="start" font-family="Helvetica, Arial, sans-serif" font-size="10" id="svg_144" y="469.31596" x="282.482709" fill-opacity="null" stroke-width="0" fill="#000000">ストーリーを共有</text>
  <g id="svg_145">
   <path stroke="#000" id="svg_8" d="m279.336681,591.708747c0,-0.256189 0.439743,-0.463698 0.982636,-0.463698c0.542893,0 0.982636,0.207509 0.982636,0.463698c0,0.25618 -0.439743,0.463689 -0.982636,0.463689c-0.542893,0 -0.982636,-0.207509 -0.982636,-0.463689zm2.014404,-3.331659c0,-0.640486 1.099358,-1.159265 2.456593,-1.159265c1.357233,0 2.456591,0.51878 2.456591,1.159265c0,0.640457 -1.099358,1.159245 -2.456591,1.159245c-1.357235,0 -2.456593,-0.51878 -2.456593,-1.159245zm4.667524,-5.051264c0,-1.770773 3.825767,-3.205086 8.548939,-3.205086c4.723159,0 8.548928,1.434313 8.548928,3.205086c0,1.770761 -3.825769,3.205061 -8.548928,3.205061c-4.723173,0 -8.548939,-1.434301 -8.548939,-3.205061zm-7.337019,-14.509065c0,-7.634343 13.104351,-13.818165 29.282561,-13.818165c16.178216,0 29.282561,6.183822 29.282561,13.818165c0,7.634351 -13.104345,13.818165 -29.282561,13.818165c-16.17821,0 -29.282561,-6.183814 -29.282561,-13.818165z" fill-opacity="null" stroke-opacity="null" stroke-width="0.3" fill="#fff"/>
   <text font-weight="normal" xml:space="preserve" text-anchor="start" font-family="Helvetica, Arial, sans-serif" font-size="12" id="svg_9" y="572.842707" x="292.485862" fill-opacity="null" stroke-opacity="null" stroke-width="0" stroke="#000" fill="#000000">共感!</text>
   <path stroke="#000" id="svg_15" d="m158.389286,589.89663l-8.896235,-13.805972l0,0c9.424847,-4.164649 12.114215,-12.009957 6.213183,-18.124693c-5.900922,-6.114701 -18.461268,-8.497587 -29.017152,-5.505038c-10.55588,2.992531 -15.65302,10.381067 -11.775353,17.069426c3.877463,6.688357 15.460533,10.487606 26.759781,8.777137l16.715776,11.58914z" fill-opacity="null" stroke-opacity="null" stroke-width="0.3" fill="#fff"/>
   <text stroke="#000" font-weight="normal" xml:space="preserve" text-anchor="start" font-family="Helvetica, Arial, sans-serif" font-size="12" id="svg_16" y="567.995573" x="121.941385" fill-opacity="null" stroke-opacity="null" stroke-width="0" fill="#000000">理解!</text>
   <path id="svg_24" d="m257.85748,671.498678c-6.856999,-2.744011 -9.594953,-10.285499 -9.594953,-10.285499s-3.089284,1.708192 -3.089284,-3.089284s3.089284,3.089284 6.178568,-15.434306c0,0 8.565192,-2.404796 6.856999,-22.291305l-2.059523,0c0,0 5.14275,-21.261544 0,-28.463817c-5.148806,-7.202272 -7.202272,-11.999748 -18.52359,-15.434305s-7.196214,-2.750069 -15.428248,-2.398739c-8.232034,0.345273 -15.09509,4.797477 -15.09509,7.196215c0,0 -5.14275,0.345273 -7.196215,2.404796c-2.059523,2.059523 -5.488023,11.654476 -5.488023,14.059271s1.71425,18.52359 3.4285,21.95209l-2.041351,0.684489c-1.714249,19.886509 6.857,22.291305 6.857,22.291305c3.083227,18.52359 6.172511,10.636829 6.172511,15.434306s-3.089284,3.089284 -3.089284,3.089284s-2.737954,7.541488 -9.594954,10.285499c-6.856999,2.737954 -44.921826,17.481714 -48.017167,20.570998c-3.095342,3.095341 -2.744011,17.493828 -2.744011,17.493828l163.229294,0c0,0 0.357387,-14.398487 -2.737954,-17.493828c-3.101399,-3.089284 -41.166226,-17.833044 -48.023225,-20.570998zm-75.536026,-1.041876c-0.599685,-1.090336 -0.896498,-1.877801 -0.896498,-1.877801s-2.616806,1.447724 -2.616806,-2.616805s2.616806,2.616805 5.233611,-13.07797c0,0 7.262847,-2.035293 5.809066,-18.893092l-1.744537,0c0,0 0.866211,-3.579935 1.435608,-8.080598c-0.024229,-1.865686 0.036345,-3.852519 0.224125,-6.033191l0.230182,-2.58046c-0.127206,-2.980251 -0.648144,-5.687918 -1.889915,-7.426397c-4.361343,-6.099822 -6.105879,-10.170408 -15.694775,-13.07797c-9.588896,-2.907561 -6.105879,-2.332106 -13.07797,-2.035293c-6.978147,0.290756 -12.79327,4.064529 -12.79327,6.105879c0,0 -4.361343,0.290757 -6.10588,2.035293c-1.641561,1.641561 -4.270481,8.855948 -4.585467,11.418237l0,1.702135c0.284699,3.955495 1.562815,14.834621 2.84093,17.39691l-1.732422,0.581512c-1.447723,16.8578 5.809066,18.893093 5.809066,18.893093c2.616805,15.694775 5.233611,9.013441 5.233611,13.077969s-2.616806,2.616806 -2.616806,2.616806s-2.319992,6.402693 -8.135115,8.716627c-0.369502,0.145378 -0.841981,0.339216 -1.405321,0.557283l0,31.704535l3.483016,0c-0.175665,-7.741382 0.466422,-17.730068 4.518836,-21.770367c2.156441,-2.150384 9.22545,-5.687917 38.476731,-17.336335zm135.262186,-54.855995c-0.242297,-2.289705 -0.769292,-4.331055 -1.768767,-5.730319c-4.355284,-6.105879 -6.105879,-10.170408 -15.688717,-13.07797c-9.594953,-2.907561 -6.105879,-2.332106 -13.084027,-2.035293c-6.97209,0.290756 -12.787213,4.064529 -12.787213,6.105879c0,0 -4.355285,0.290757 -6.10588,2.035293c-1.641561,1.647619 -4.29471,8.916523 -4.591524,11.454581l0.199895,0l0.484593,5.530425c0.121149,1.399264 0.133264,2.641035 0.163551,3.907036c0.545168,4.034241 1.272058,8.177517 1.998948,9.62524l-1.732422,0.581512c-1.447723,16.8578 5.815123,18.893093 5.815123,18.893093c2.616806,15.694775 5.227554,9.013441 5.227554,13.077969s-2.616806,2.616806 -2.616806,2.616806s-0.321043,0.860153 -0.987359,2.047408c28.893893,11.509097 35.902328,15.022401 38.034539,17.166728c4.058472,4.040299 4.694501,14.022927 4.518836,21.770367l2.907561,0l0,-32.14067c-0.096919,-0.036345 -0.230182,-0.090861 -0.314986,-0.127206c-5.809065,-2.319992 -8.135115,-8.716627 -8.135115,-8.716627s-2.622862,1.447723 -2.622862,-2.616806s2.622862,2.616806 5.23361,-13.077969c0,0 4.870166,-1.387149 5.833296,-11.15171l0,-7.432454c-0.006058,-0.109034 -0.006058,-0.199895 -0.018173,-0.308929l-1.750594,0c0,0 1.302345,-5.391104 1.768767,-11.272858l0,-7.123526l0.018172,0z" fill-opacity="null" stroke-opacity="null" stroke-width="0.3" stroke="#a4ffff" fill="#000"/>
   <text xml:space="preserve" text-anchor="start" font-family="Helvetica, Arial, sans-serif" font-size="12" id="svg_130" y="734.480241" x="139.938302" fill-opacity="null" stroke-opacity="null" stroke-width="0" stroke="#000000" fill="#000000">このサービス、良いじゃないか！</text>
   <text xml:space="preserve" text-anchor="start" font-family="Helvetica, Arial, sans-serif" font-size="12" id="svg_131" y="759.69786" x="151.929177" fill-opacity="null" stroke-opacity="null" stroke-width="0" stroke="#000000" fill="#000000">この会社の精神性が良いね！</text>
   <text xml:space="preserve" text-anchor="start" font-family="Helvetica, Arial, sans-serif" font-size="12" id="svg_132" y="786.654626" x="127.94367" fill-opacity="null" stroke-opacity="null" stroke-width="0" stroke="#000000" fill="#000000">製品ができた背景に興味があるから、</text>
   <text xml:space="preserve" text-anchor="start" font-family="Helvetica, Arial, sans-serif" font-size="12" id="svg_133" y="798.828649" x="163.928045" fill-opacity="null" stroke-opacity="null" stroke-width="0" stroke="#000000" fill="#000000">問い合わせてみよう！！</text>
   <path id="svg_143" d="m223.347505,567.826537c-2.373875,-0.62974 -3.749128,-3.218736 -3.586909,-5.567387c-0.060771,-3.067779 0.222271,-6.295864 -1.244714,-9.116651c-0.836162,-2.106113 -2.260574,-3.965625 -2.855002,-6.160422c-0.739704,-3.405081 0.173988,-7.264395 2.926991,-9.550358c3.104739,-2.660365 8.06277,-3.007114 11.480472,-0.745965c2.41053,1.660408 4.149782,4.398992 4.085167,7.387432c0.282847,2.233027 -0.598461,4.333381 -1.635224,6.253032c-0.742798,1.545647 -1.610277,3.058138 -2.284481,4.621019c-0.177737,3.204485 -0.075801,6.438362 -0.557894,9.615283c-0.803076,2.46175 -3.829563,4.135496 -6.328408,3.264016l0,0.000001zm6.269757,-5.729672c-1.408828,-0.7594 -3.433306,-0.265675 -5.070863,-0.429162c-1.337667,0.267554 -3.714559,-0.548775 -4.42569,0.675752c1.626312,0.636187 3.537569,0.159291 5.268932,0.264545c1.385351,-0.133054 2.979228,0.126175 4.227621,-0.511137l0,0.000001zm-0.105511,-1.428972c0.207332,-1.929325 -2.843598,-0.944826 -4.083,-1.232033c-1.64043,0.332037 -4.251025,-0.710735 -5.282725,0.77163c0.611354,1.489664 3.337831,0.442 4.769554,0.772518c1.526787,-0.054103 3.110755,0.054722 4.59617,-0.312115l0.000001,0zm0.018995,-3.380346c0.402761,-3.758376 2.700733,-6.8877 4.03136,-10.325658c1.09403,-4.116224 -1.072664,-8.81882 -4.995439,-10.546636c-3.90452,-1.935121 -9.106605,-0.473254 -11.313178,3.318574c-2.126049,3.132149 -1.720308,7.387864 0.357639,10.433853c1.482667,2.662035 2.665607,5.653602 2.472911,8.751601c3.07767,0 6.155341,0 9.233014,0c0.071235,-0.543903 0.142445,-1.087843 0.213693,-1.631734zm-6.813448,-5.3246c-1.219386,-2.120217 -2.471175,-4.256773 -3.320295,-6.554568c0.763413,-0.988203 0.985494,-2.088956 1.222646,-3.250046c2.142672,-0.420874 -0.272737,2.441756 1.75025,2.506265c1.795709,0.781298 1.007958,-3.791106 2.499868,-2.14297c-1.070945,1.808817 2.10362,3.608248 2.220128,1.020651c-0.153897,-1.953758 1.918791,-1.587704 1.110693,0.184756c0.066697,0.911785 1.55121,1.173182 1.576627,1.90652c-1.068702,2.318104 -1.997632,4.711366 -3.263096,6.930556c-0.284842,-0.85921 1.120307,-3.012674 1.569308,-4.277091c0.866406,-1.092981 1.610919,-4.038472 -0.647749,-3.636971c-1.310226,2.043617 -3.072761,-1.288188 -4.355655,0.670312c-1.089044,0.324852 -2.801871,-1.886065 -3.117792,0.239773c0.820222,2.524951 2.52692,4.676851 3.419895,7.175738c-0.30301,-0.178651 -0.475551,-0.49208 -0.664827,-0.772927l0,0.000001zm-1.711541,-9.253638c-0.592956,-0.289394 0.249925,1.538476 -0.000012,0l0.000012,0zm3.544086,0.215897c-0.769719,-1.302662 -0.356905,1.580537 0,0zm3.435227,0c-0.769719,-1.302662 -0.356911,1.580537 0,0zm-15.992582,-9.625549c-1.360462,-1.380741 -2.864286,-2.676339 -4.047441,-4.198295c2.955779,2.446726 5.661156,5.202262 8.324882,7.964699c0.707337,0.97198 -1.233995,-0.907671 -1.595308,-1.222742c-0.904043,-0.83726 -1.796245,-1.687246 -2.682135,-2.543662l0.000001,0zm21.008269,3.947683c2.299513,-2.865188 4.445012,-5.868933 6.924226,-8.581497c-0.41514,1.167894 -1.751507,2.565364 -2.591764,3.768189c-1.403224,1.745762 -2.714871,3.591584 -4.319493,5.156831c-0.200274,0.211689 -0.499332,-0.289712 -0.012947,-0.343522l-0.00002,0l-0.000001,0zm-4.9808,-2.718164c0.794501,-2.272504 1.94694,-4.435659 3.232647,-6.469499c-0.029881,1.128272 -1.393469,3.266724 -2.048894,4.665738c-0.37077,0.562976 -0.683504,1.460806 -1.183753,1.803761zm-10.174356,-2.914402c-0.553444,-0.807275 -2.219457,-2.686989 -1.908387,-2.943332c1.606252,1.780945 3.239935,3.619157 4.393788,5.725278c-0.982622,-0.753628 -1.689659,-1.842115 -2.485402,-2.781946l0.000001,0zm6.360707,-0.635334c-0.112009,-0.758141 0.235701,-4.377336 0.428869,-1.919828c0.000686,1.539744 0.161405,3.273118 -0.267175,4.674573c-0.183529,-0.901025 -0.139001,-1.839047 -0.161694,-2.754745z" fill-opacity="null" stroke-opacity="null" stroke-width="0.5" stroke="#000" fill="#fff"/>
  </g>
  <rect stroke="#000000" id="svg_40" height="380.872995" width="438.264852" y="29.961031" x="6.300565" stroke-opacity="null" stroke-width="0.5" fill="none"/>
  <rect stroke="#000000" id="svg_33" height="197.39309" width="167.827602" y="129.051179" x="15.213933" fill-opacity="null" stroke-width="0.5" fill="none"/>
  <text xml:space="preserve" text-anchor="start" font-family="Helvetica, Arial, sans-serif" font-size="12" id="svg_26" y="193.659834" x="43.921604" fill-opacity="null" stroke-opacity="null" stroke-width="0" stroke="#000" fill="#000000">物事の経緯</text>
  <text xml:space="preserve" text-anchor="start" font-family="Helvetica, Arial, sans-serif" font-size="12" id="svg_28" y="261.484343" x="99.484782" fill-opacity="null" stroke-opacity="null" stroke-width="0" stroke="#000" fill="#000000">意味付け</text>
  <text font-weight="bold" xml:space="preserve" text-anchor="start" font-family="Helvetica, Arial, sans-serif" font-size="10" id="svg_34" y="119.527043" x="67.919338" fill-opacity="null" stroke-width="0" stroke="#000000" fill="#000000">ストーリー構成</text>
  <path stroke="#000000" id="svg_35" d="m401.586138,107.719733c-18.439817,-19.940777 -38.328174,-35.914587 -54.642759,-38.092298c-0.888156,-0.141257 -1.808032,-0.223657 -2.780775,-0.2472l-107.371753,0c-1.712873,0 -3.404599,0.741599 -4.609954,2.118855c-1.194782,1.341941 -1.903192,3.225368 -1.903192,5.144108l0,303.113931c0,1.906969 0.666117,3.731538 1.903192,5.120565c1.237075,1.365484 2.865361,2.107083 4.609954,2.107083l194.167886,0c1.712873,0 3.351733,-0.729828 4.588808,-2.107083c1.237075,-1.377256 1.924339,-3.201825 1.924339,-5.120565l0,-201.703193c-0.380638,-23.413344 -16.853823,-48.945543 -35.885744,-70.334203zm22.838305,264.75089l-181.141593,0l0,-288.611548l100.890327,0l0,0.023543c4.398488,-0.294285 8.194299,4.543766 11.101954,15.608896c2.643322,10.535416 3.30944,24.272657 3.298866,33.795732c0.021147,6.980449 -0.285479,11.665472 -0.285479,11.665472l-0.518091,7.674962l6.936078,0.0824c0.03172,0 16.029107,0.211885 31.719868,4.178852c15.077511,3.625596 26.866728,10.853244 27.96635,19.034378c0.042293,0.729828 0.052866,1.459655 0.042293,2.142397l0,194.404915l-0.010573,0z" fill-opacity="null" stroke-width="0.5" fill="none"/>
  <path transform="rotate(90 206.74847412109378,232.53038024902344) " id="svg_38" d="m190.226047,232.49076l16.521894,-16.466398l16.521894,16.466398l-8.260948,0l0,16.545631l-16.521892,0l0,-16.545631l-8.260948,0z" fill-opacity="null" stroke-opacity="null" stroke-width="0.5" stroke="#000000" fill="none"/>
  <path stroke="#000000" id="svg_41" d="m277.662247,165.745364l0,43.157874l52.17438,0l0,-43.157874l-52.17438,0zm43.961746,39.453493l-35.749112,0l0,-35.749112l35.749112,0l0,35.749112zm-27.053382,-21.739325c2.75558,0 4.991349,-2.235769 4.991349,-4.991349c0,-2.757513 -2.235769,-4.991349 -4.991349,-4.991349c-2.757513,0 -4.991349,2.235769 -4.991349,4.991349c0,2.75558 2.233836,4.991349 4.991349,4.991349zm25.12293,4.347865l-9.501534,-9.501534l-13.366303,13.366303l-3.704381,-3.704381l-5.317922,5.317922l0,9.980766l31.89014,0l0,-15.459075z" stroke-opacity="null" stroke-width="0.3" fill="#000000"/>
  <text font-weight="bold" stroke="#000000" xml:space="preserve" text-anchor="start" font-family="Helvetica, Arial, sans-serif" font-size="10" id="svg_42" y="62.13522" x="236.668906" fill-opacity="null" stroke-width="0" fill="#000000">【ストーリーを反映した】ホームページ制作</text>
  <path id="svg_43" d="m383.131874,167.974245l-4.95213,-3.112555c-1.249438,-0.784537 -2.89579,-0.406939 -3.683065,0.842759l-1.951915,3.106747l9.473635,5.95018l1.953454,-3.105305c0.784288,-1.251186 0.409976,-2.899037 -0.839979,-3.681826l0,0zm-27.445477,27.677837l9.474151,5.950118l15.441296,-24.581302l-9.478661,-5.951672l-15.436788,24.582854l0.000002,0.000002zm-1.447175,7.559847l-0.20925,5.588844l4.944534,-2.615324l4.594877,-2.426082l-9.140017,-5.7439l-0.190141,5.196464l0,0l-0.000002,-0.000002z" fill-opacity="null" stroke-opacity="null" stroke-width="0.3" stroke="#000000" fill="#000000"/>
  <path id="svg_44" d="m288.430422,239.120479c-13.687333,0 -24.78282,11.095487 -24.78282,24.78282c0,13.687333 11.095487,24.78282 24.78282,24.78282c13.687333,0 24.78282,-11.095487 24.78282,-24.78282c0,-13.687333 -11.095487,-24.78282 -24.78282,-24.78282zm-13.213298,10.254843c0.20803,0.093784 0.434816,0.177337 0.477445,0.233607c0.066501,0.086963 0.153465,0.351263 0.044334,0.416059c-0.110836,0.066501 -0.284762,0.044334 -0.308634,-0.153465c-0.022167,-0.196094 -0.044334,-0.218261 -0.306929,-0.306929c-0.037514,-0.011936 -0.059681,-0.017052 -0.086963,-0.025577c0.059681,-0.054565 0.121066,-0.10913 0.180747,-0.163696zm-0.883274,0.84235c0.05286,0.148349 0.192683,0.213145 0,0.289877c-0.10231,0.040924 -0.20803,0.047745 -0.296698,0.035808c0.098899,-0.107425 0.192683,-0.221671 0.296698,-0.325686zm14.096572,33.351258c-10.846534,0 -19.667335,-8.820802 -19.667335,-19.66563c0,-0.144939 0.018757,-0.286467 0.022167,-0.433111c0.006821,-0.005115 0.013641,-0.010231 0.020462,-0.015346c0.219966,-0.173926 0.482561,-0.612153 0.569524,-0.767323c0.088668,-0.151759 0.308634,-0.262595 0.197799,-0.436521c-0.100605,-0.163696 -0.497907,-0.392187 -0.694001,-0.445047c0.017052,-0.168811 0.054565,-0.332507 0.076732,-0.501318c0.107425,0.131297 0.233607,0.289877 0.354674,0.330801c0.196094,0.064796 0.854286,0.088668 0.965122,0.088668c0.107425,0 0.569524,0.023872 0.658192,-0.10913c0.086963,-0.131297 0.153465,-0.131297 0.262595,-0.131297c0.10913,0 0.306929,0.393892 0.462099,0.438227c0.151759,0.044334 0.438227,0.022167 0.416059,0.308634c-0.020462,0.283057 0.131297,0.526895 0.284762,0.547357c0.153465,0.022167 0.504728,-0.330801 0.504728,-0.330801s0,0.549062 -0.020462,0.746861c-0.022167,0.194388 0.240428,0.920787 0.240428,0.920787s0.329096,0.676949 0.416059,0.832119c0.088668,0.153465 0.460394,0.613858 0.460394,0.811657c0,0.199504 0.044334,0.506433 0.177337,0.506433s0.2643,-0.351263 0.416059,-0.571229c0.15517,-0.218261 0.199504,-0.5286 0.2643,-0.746861c0.066501,-0.219966 0.066501,-0.613858 0.066501,-0.767323c0,-0.15517 0.129592,-0.286467 0.438227,-0.417765c0.308634,-0.131297 0.526895,-0.504728 0.78949,-0.702527c0.2643,-0.197799 0.242133,-0.526895 0.770733,-0.526895c0.52519,0 0.480856,0 0.613858,-0.133003c0.131297,-0.131297 0.262595,-0.218261 0.327391,0.022167c0.066501,0.242133 0.438227,0.591691 0.504728,0.68036c0.066501,0.088668 0.197799,0.329096 0.177337,0.593396c-0.022167,0.26089 0.020462,0.569524 0.131297,0.569524c0.10913,0 0.329096,-0.37343 0.329096,-0.37343s0.482561,-0.327391 0.460394,0.023872c-0.023872,0.349558 0.042629,0.724694 0.042629,0.941249c0,0.221671 0.395598,0.746861 0.395598,0.617269c0,-0.134708 0.175632,-0.504728 0.175632,-0.704232c0,-0.194388 0.10913,-0.107425 0.393892,0.086963c0.284762,0.197799 0.482561,0.595101 0.482561,0.595101s0.286467,0.262595 0.329096,0.37343c0.044334,0.10913 0.351263,-0.042629 0.416059,-0.177337c0.066501,-0.129592 0.110836,-0.196094 0.284762,-0.240428c0.177337,-0.044334 0.393892,-0.044334 0.462099,-0.286467c0.066501,-0.242133 0.262595,-0.52519 0,-0.855991c-0.262595,-0.329096 -0.395598,-0.547357 -0.591691,-0.702527c-0.199504,-0.153465 -0.351263,-0.549062 -0.351263,-0.549062s0.416059,-0.371725 0.547357,-0.504728c0.134708,-0.131297 0.329096,-0.042629 0.352968,0.10913c0.022167,0.15517 -0.196094,0.286467 -0.240428,0.615563c-0.044334,0.327391 0.262595,0.438227 0.351263,0.327391c0.086963,-0.110836 0.306929,-0.37343 0.306929,-0.438227c0,-0.066501 -0.151759,-0.044334 -0.173926,-0.284762c-0.022167,-0.242133 0.283057,-0.417765 0.392187,-0.352968c0.112541,0.066501 0.813362,-0.086963 1.142458,-0.262595s0.52519,-0.549062 0.724694,-0.702527c0.197799,-0.151759 0.878158,-0.658192 0.833824,-0.89862c-0.044334,-0.242133 0.020462,-0.569524 -0.153465,-0.878158c-0.175632,-0.306929 -0.395598,-0.503023 -0.482561,-0.636025c-0.086963,-0.131297 0.37343,-0.153465 0.591691,-0.351263c0.219966,-0.197799 0,-0.37343 -0.10913,-0.351263c-0.10913,0.022167 -0.395598,0.088668 -0.504728,0.066501c-0.10913,-0.022167 -0.175632,-0.131297 -0.351263,-0.2643c-0.173926,-0.131297 0.044334,-0.327391 0.15517,-0.305224c0.10913,0.022167 0.392187,-0.219966 0.52519,-0.329096c0.131297,-0.10913 0.329096,-0.196094 0.262595,-0.086963c-0.064796,0.10913 -0.218261,0.504728 -0.044334,0.526895c0.177337,0.022167 0.593396,-0.329096 0.661603,-0.306929c0.064796,0.022167 0.173926,0.306929 0.10913,0.438227c-0.066501,0.131297 -0.066501,0.351263 0.022167,0.329096c0.086963,-0.022167 0.262595,-0.219966 0.306929,-0.153465c0.046039,0.066501 0.262595,0.197799 0.153465,0.438227c-0.107425,0.242133 -0.329096,0.329096 -0.066501,0.484266c0.262595,0.151759 0.351263,0.020462 0.549062,-0.088668c0.196094,-0.10913 0.329096,-0.591691 0.218261,-0.746861c-0.10913,-0.153465 -0.371725,-0.460394 -0.371725,-0.569524c0,-0.10913 0.438227,-0.10913 0.438227,-0.284762s0.153465,-0.306929 0.306929,-0.37343c0.15517,-0.066501 0.351263,-0.351263 0.416059,-0.262595c0.066501,0.088668 0.462099,0.197799 0.569524,0.066501c0.10913,-0.131297 0.682065,-0.613858 1.031623,-0.878158c0.351263,-0.262595 0.482561,-0.569524 0.572934,-0.878158c0.086963,-0.306929 0.218261,-0.504728 0.173926,-0.745156l0,0c0.131297,0.306929 0.153465,0.526895 0.131297,0.767323c-0.022167,0.242133 0,0.746861 0.044334,0.811657c0.042629,0.066501 0.219966,0.218261 0.327391,0.175632c0.10913,-0.042629 -0.042629,-0.482561 -0.042629,-0.569524c0,-0.088668 0.153465,-0.219966 0.242133,-0.242133c0.088668,-0.022167 0,-0.393892 -0.110836,-0.549062c-0.107425,-0.153465 -0.262595,-0.242133 -0.173926,-0.262595c0.086963,-0.022167 0.196094,-0.197799 0.131297,-0.242133c-0.066501,-0.042629 -0.023872,-0.197799 -0.175632,-0.153465c-0.110836,0.032398 -0.410944,-0.025577 -0.400713,0.16199c-0.063091,-0.187568 -0.197799,-0.312045 -0.368315,-0.293288c-0.197799,0.022167 -0.308634,0.131297 -0.504728,0.131297s-0.042629,-0.306929 -0.131297,-0.306929c-0.086963,0 -0.286467,0.284762 -0.393892,0.131297c-0.10913,-0.153465 0.306929,-0.351263 0.636025,-0.460394c0.327391,-0.10913 0.876453,-0.746861 1.098124,-0.769028c0.218261,-0.022167 0.767323,0.044334 1.249884,0.022167c0.482561,-0.022167 0.636025,-0.219966 0.78949,-0.10913s0.482561,0.242133 0.68036,0.219966c0.197799,-0.023872 0.10913,0 0.416059,-0.219966c0.306929,-0.219966 0.593396,-0.329096 0.746861,-0.504728c0.153465,-0.175632 0.571229,-0.306929 0.593396,-0.131297c0.023872,0.175632 -0.044334,0.351263 0.131297,0.351263s0.439932,-0.175632 0.658192,-0.262595c0.219966,-0.086963 0.393892,-0.197799 0.393892,-0.197799s-0.89862,0.613858 -1.116881,0.746861c-0.219966,0.131297 -0.746861,0.219966 -0.966827,0.482561c-0.218261,0.2643 -0.349558,0.351263 -0.327391,0.63773c0.023872,0.284762 0.393892,0.658192 0.218261,0.920787c-0.175632,0.262595 -0.240428,0.636025 -0.240428,0.636025s0.262595,-0.37343 0.636025,-0.613858s0.593396,-0.569524 0.724694,-0.702527s0.526895,-0.15517 0.526895,-0.308634s0.10913,-0.351263 0.177337,-0.526895c0.064796,-0.175632 -0.131297,-0.133003 0,-0.351263c0.129592,-0.219966 0.10913,-0.395598 0.767323,-0.395598s0.438227,0.044334 0.965122,0.022167c0.526895,-0.022167 0.722989,-0.284762 1.227716,-0.417765c0.504728,-0.131297 0.89862,-0.218261 1.05379,-0.151759c0.153465,0.064796 0.395598,0.020462 0.240428,-0.133003c-0.151759,-0.153465 -0.503023,-0.37343 -0.329096,-0.417765c0.177337,-0.044334 0.352968,-0.066501 0.41947,-0.242133c0.066501,-0.175632 -0.242133,-0.482561 -0.066501,-0.658192c0.177337,-0.175632 -0.131297,-0.393892 -0.352968,-0.438227c-0.218261,-0.042629 -1.074252,0.044334 -1.246473,-0.042629c-0.177337,-0.088668 -0.462099,-0.197799 -0.549062,-0.133003c-0.088668,0.066501 -0.286467,0.417765 -0.286467,0.417765s-0.153465,0.042629 -0.286467,-0.153465c-0.129592,-0.197799 -0.852581,-0.175632 -1.072547,-0.175632s-0.462099,0.042629 -0.704232,0.066501c-0.240428,0.022167 -0.37343,0.088668 -0.549062,-0.066501c-0.173926,-0.153465 -0.414354,-0.219966 -0.504728,-0.284762c-0.086963,-0.066501 -0.569524,-0.066501 -0.942954,-0.020462c-0.371725,0.042629 -0.746861,0.042629 -0.746861,0.042629s-0.177337,-0.066501 -0.438227,-0.219966c-0.262595,-0.153465 -0.526895,-0.262595 -0.615563,-0.262595c-0.086963,0 -0.765618,0.10913 -0.919082,0c-0.15517,-0.10913 -0.308634,-0.175632 -0.417765,-0.175632s-0.196094,-0.175632 -0.064796,-0.175632s0.745156,-0.175632 0.745156,-0.175632s-0.175632,-0.242133 -0.393892,-0.242133c-0.218261,0 -0.612153,-0.10913 -0.722989,-0.10913s-0.023872,0.10913 -0.242133,0.066501c-0.221671,-0.044334 -0.439932,-0.133003 -0.571229,-0.044334c-0.129592,0.086963 -0.439932,0.218261 -0.10913,0.306929c0.329096,0.088668 0.636025,0 0.724694,0.133003c0.088668,0.131297 0,0.196094 0,0.284762s-0.175632,0.329096 -0.284762,0.37343c-0.10913,0.042629 -0.243838,-0.066501 -0.460394,0.042629c-0.219966,0.10913 -0.769028,0.022167 -0.835529,0.088668c-0.064796,0.066501 -0.196094,-0.175632 -0.306929,-0.131297c-0.10913,0.042629 -0.395598,0.329096 -0.549062,0.306929c-0.151759,-0.022167 -0.351263,-0.175632 -0.351263,-0.351263s-0.064796,-0.395598 -0.131297,-0.439932c-0.064796,-0.042629 -0.549062,-0.066501 -0.724694,-0.042629c-0.175632,0.022167 -0.722989,0.064796 -0.813362,0.153465c-0.088668,0.088668 -0.329096,0.153465 -0.482561,0.153465s-0.284762,-0.153465 -0.613858,-0.197799c-0.327391,-0.044334 -1.052085,-0.066501 -1.140753,-0.044334s-0.371725,-0.042629 -0.2643,-0.131297c0.110836,-0.086963 0.438227,-0.37343 0.243838,-0.503023c-0.199504,-0.133003 -0.639436,-0.133003 -0.833824,-0.153465c-0.199504,-0.022167 -0.395598,-0.066501 -0.704232,-0.022167c-0.308634,0.044334 -0.37343,0.197799 -0.504728,0.066501c-0.131297,-0.131297 0.329096,0.066501 -0.131297,-0.131297c-0.460394,-0.197799 -0.68036,-0.175632 -0.813362,-0.10913c-0.131297,0.066501 0.022167,0.042629 -0.327391,0.175632c-0.351263,0.133003 -0.549062,0.197799 -0.63773,0.219966c-0.086963,0.020462 -0.63432,-0.110836 -0.700821,-0.15517c-0.064796,-0.042629 -0.308634,0.022167 -0.526895,0.10913s-0.380251,0.218261 -0.598512,0.175632c-0.219966,-0.046039 -0.571229,-0.046039 -0.791195,0.042629c-0.219966,0.086963 -0.37343,0.086963 -0.591691,0.240428c-0.221671,0.153465 -0.636025,0.242133 -0.636025,0.242133s-0.104015,-0.005115 -0.230197,-0.011936c3.454658,-3.001085 7.951169,-4.834133 12.877381,-4.834133c10.846534,0 19.667335,8.820802 19.667335,19.667335s-8.822507,19.66563 -19.667335,19.66563zm-1.89614,-12.981396c0,0 0.352968,-0.044334 0.352968,-0.199504c0,-0.151759 -0.352968,-0.349558 -0.480856,-0.173926c-0.133003,0.173926 -0.37343,0.349558 -0.352968,0.504728c0.032398,0.240428 0.480856,-0.131297 0.480856,-0.131297zm-0.022167,-4.939853c-0.308634,0.397303 -0.284762,0.310339 -0.504728,0.218261c-0.218261,-0.085258 -0.569524,0.197799 -0.504728,0.310339c0.066501,0.10913 0.549062,-0.023872 0.658192,0.173926c0.110836,0.197799 0.110836,0.219966 0.329096,0.177337c0.218261,-0.044334 0.438227,-0.349558 0.37343,-0.503023c-0.064796,-0.15858 -0.351263,-0.376841 -0.351263,-0.376841zm-0.064796,2.083708c-0.086963,0 -0.702527,0.10913 -0.769028,0.134708c-0.066501,0.022167 -0.460394,-0.042629 -0.460394,-0.042629c-0.153465,0.151759 -0.044334,0.305224 0.197799,0.283057s0.746861,-0.088668 0.855991,-0.088668c0.110836,0 0.262595,-0.286467 0.175632,-0.286467zm-0.942954,-6.099363c-0.323981,0.051155 -0.52519,0.746861 -0.2643,0.724694c0.2643,-0.020462 0.549062,-0.767323 0.2643,-0.724694zm0.767323,3.906525c-0.088668,-0.10913 -0.308634,-0.462099 -0.550767,-0.37343c-0.071617,0.028988 -0.26089,0.417765 -0.020462,0.417765c0.242133,0 0.659898,0.064796 0.571229,-0.044334zm0.197799,-0.262595c0.395598,-0.022167 0.284762,-0.417765 -0.022167,-0.438227c-0.086963,-0.006821 -0.37343,0.460394 0.022167,0.438227zm4.673848,3.620058c-0.329096,-0.066501 -0.416059,-0.173926 -0.767323,-0.349558c-0.352968,-0.175632 -1.142458,-0.175632 -1.16292,-0.066501c-0.023872,0.10913 0,0 -0.2643,-0.085258c-0.26089,-0.092079 -0.462099,0 -0.526895,-0.15517c-0.064796,-0.15517 -0.218261,-0.199504 -0.416059,-0.00341c-0.165401,0.165401 -0.242133,0.177337 0.133003,0.243838c0.371725,0.066501 0.482561,0.066501 0.327391,0.240428c-0.153465,0.177337 -0.262595,0.397303 -0.131297,0.416059c0.131297,0.025577 0.526895,-0.085258 0.569524,0c0.044334,0.092079 -0.086963,0.10913 0.352968,0.179042c0.439932,0.063091 0.526895,0.218261 0.612153,0.303519c0.086963,0.088668 0.351263,0.375136 0.177337,0.375136c-0.177337,0 -0.37343,0.218261 -0.242133,0.243838c0.131297,0.022167 0.526895,-0.066501 0.547357,0c0.023872,0.063091 0.243838,0.482561 0.462099,0.462099c0.219966,-0.022167 0.351263,-0.416059 0.460394,-0.5286c0.110836,-0.10913 0.549062,-0.177337 0.595101,0.020462c0.044334,0.197799 0.177337,0.397303 0.438227,0.530305c0.262595,0.129592 0.571229,0.262595 0.593396,0.151759c0.022167,-0.10913 -0.131297,-0.526895 -0.308634,-0.589986c-0.175632,-0.069912 -0.480856,-0.441637 -0.480856,-0.593396c0,-0.15517 -0.2643,-0.199504 -0.395598,-0.310339c-0.133003,-0.110836 -0.243838,-0.417765 -0.572934,-0.484266zm-16.282589,-3.248333c-0.143234,0.063091 -0.2643,0.811657 0,0.89862c0.262595,0.088668 0.416059,-0.349558 0.329096,-0.462099c-0.088668,-0.104015 -0.131297,-0.521779 -0.329096,-0.436521zm12.59603,1.865447c-0.201209,-0.085258 -0.571229,0.722989 -0.308634,0.78949c0.2643,0.068206 0.460394,-0.722989 0.308634,-0.78949zm0.439932,-7.526584c0.131297,0 0.306929,-0.086963 0.306929,-0.329096c0,-0.242133 0.306929,0 0.460394,-0.022167s0.240428,-0.175632 0.306929,-0.351263c0.008526,-0.022167 0.013641,-0.035808 0.015346,-0.046039c-0.005115,0.040924 -0.001705,0.15858 0.16199,0.199504c0.262595,0.064796 0.349558,-0.10913 0.349558,-0.175632s0.482561,-0.175632 0.572934,-0.242133c0.086963,-0.064796 0.439932,-0.175632 0.460394,-0.262595c0.022167,-0.086963 0,-0.593396 0.10913,-0.636025c0.10913,-0.044334 0.262595,-0.044334 0.088668,-0.351263c-0.177337,-0.308634 -0.177337,-0.593396 -0.395598,-0.462099c-0.16199,0.097194 -0.064796,0.484266 -0.196094,0.746861s-0.242133,0.504728 -0.329096,0.504728s-0.547357,0.175632 -0.68036,0.306929c-0.129592,0.131297 -0.767323,-0.10913 -0.854286,0c-0.088668,0.10913 -0.262595,0.240428 -0.37343,0.329096c-0.110836,0.086963 -0.417765,0.022167 -0.352968,0.284762c0.061386,0.266005 0.216556,0.506433 0.349558,0.506433zm3.004495,-2.808401c0.306929,-0.022167 0.593396,-0.10913 0.593396,-0.10913s0.462099,0.022167 0.395598,-0.197799c-0.068206,-0.218261 -0.549062,-0.240428 -0.639436,-0.218261c-0.086963,0.022167 -0.242133,-0.242133 -0.416059,-0.197799c-0.163696,0.039219 -0.218261,0.2643 -0.218261,0.329096c0,0.066501 -0.613858,0.196094 -0.417765,0.37343c0.197799,0.173926 0.397303,0.042629 0.702527,0.020462zm-6.034567,11.939542c0.177337,0.10913 0.504728,-0.37343 0.595101,-0.221671c0.086963,0.15517 -0.022167,0.221671 0.129592,0.41947c0.15517,0.194388 0.439932,0.173926 0.439932,0.173926s-0.022167,-0.526895 -0.2643,-0.659898c-0.242133,-0.131297 -0.395598,-0.283057 -0.10913,-0.240428c0.284762,0.044334 0.438227,-0.066501 0.37343,-0.194388c-0.066501,-0.133003 -0.482561,-0.066501 -0.615563,-0.044334s-0.329096,-0.088668 -0.329096,-0.088668c-0.131297,0.040924 -0.107425,0.151759 -0.153465,0.37343c-0.044334,0.216556 -0.242133,0.37002 -0.066501,0.482561zm11.960004,4.365214c-0.393892,-0.088668 -0.131297,0.066501 0,0.262595c0.131297,0.197799 0.395598,0.300108 0.439932,0.085258c0.018757,-0.107425 -0.046039,-0.259185 -0.439932,-0.347853zm1.689815,5.330336c-0.131297,0.10913 0,0.15517 -0.37343,0.375136c-0.375136,0.221671 -0.835529,0.462099 -0.922492,0.658192c-0.088668,0.197799 0.086963,0.308634 0.439932,0.327391c0.351263,0.022167 0.262595,0.090374 0.504728,-0.175632s0.462099,-0.416059 0.746861,-0.636025c0.286467,-0.218261 0.286467,-0.549062 0.286467,-0.549062s-0.308634,-0.303519 -0.329096,-0.240428c-0.037514,0.10572 -0.221671,0.133003 -0.352968,0.240428zm-5.816307,-5.330336c0.023872,-0.197799 -0.37343,-0.197799 -0.569524,-0.352968c-0.197799,-0.151759 -0.218261,-0.612153 -0.329096,-0.878158c-0.10913,-0.26089 -0.327391,-0.438227 -0.549062,-0.676949c-0.218261,-0.243838 -0.327391,-0.7929 -0.392187,-0.746861c-0.066501,0.042629 -0.262595,0.68036 -0.10913,0.878158c0.153465,0.197799 -0.066501,0.593396 -0.175632,0.857696c-0.110836,0.26089 -0.375136,-0.044334 -0.595101,-0.177337c-0.219966,-0.133003 -0.52519,-0.218261 -0.678654,-0.37343c-0.153465,-0.15517 0.2643,-0.571229 0.15517,-0.726399c-0.110836,-0.153465 -0.702527,-0.022167 -0.767323,-0.022167c-0.066501,0 -0.197799,-0.218261 -0.330801,-0.218261c-0.131297,0 -0.10913,0.439932 -0.10913,0.439932s-0.133003,-0.15517 -0.329096,-0.352968c-0.199504,-0.196094 0.020462,0.131297 -0.175632,0.329096c-0.199504,0.199504 -0.134708,0.133003 -0.219966,0.351263c-0.086963,0.219966 -0.284762,0.131297 -0.482561,-0.088668c-0.197799,-0.218261 -0.305224,-0.063091 -0.439932,0c-0.131297,0.066501 -0.240428,0.441637 -0.306929,0.526895c-0.066501,0.088668 -0.526895,0.199504 -0.63773,0.310339c-0.10913,0.10572 -0.153465,0.460394 -0.153465,0.549062c0,0.085258 -0.462099,0.039219 -0.615563,0.151759c-0.153465,0.10913 -0.392187,0.042629 -0.547357,0.042629c-0.153465,0 -0.68036,0.416059 -0.855991,0.52519c-0.175632,0.112541 -0.175632,0.508138 -0.086963,0.617269c0.086963,0.107425 0.262595,0.37343 0.153465,0.416059c-0.10913,0.044334 -0.177337,0.351263 0.086963,0.612153c0.262595,0.2643 0.175632,0.330801 0.196094,0.462099c0.023872,0.131297 0.133003,0.177337 0.308634,0.395598c0.173926,0.218261 -0.308634,0.393892 -0.37343,0.5286c-0.066501,0.129592 0.15517,0.327391 0.284762,0.438227c0.131297,0.107425 0.462099,0.044334 0.658192,-0.022167c0.199504,-0.066501 0.417765,-0.243838 0.547357,-0.2643c0.134708,-0.022167 0.746861,-0.044334 0.746861,-0.044334s0.219966,-0.327391 0.37343,-0.504728c0.151759,-0.173926 0.63432,-0.022167 0.63432,-0.022167s0.199504,-0.129592 0.726399,-0.240428c0.526895,-0.110836 0.305224,0.10913 0.504728,0.177337c0.196094,0.063091 0.460394,0.10572 0.612153,0.218261c0.153465,0.10913 0,0.371725 -0.020462,0.482561c-0.023872,0.10913 0.37343,0.064796 0.392187,-0.044334c0.023872,-0.10913 0.131297,-0.218261 0.352968,-0.349558c0.218261,-0.133003 0.042629,0.194388 0.129592,0.393892c0.088668,0.197799 0.219966,-0.26771 0.219966,-0.044334c0,0.066501 0.066501,0.133003 0.086963,0.197799c0.023872,0.066501 0.308634,0.088668 0.308634,0.306929c0,0.221671 0,0.352968 0.066501,0.393892c0.064796,0.044334 0.416059,0 0.571229,0.2643c0.151759,0.262595 0.262595,0.022167 0.349558,-0.088668c0.088668,-0.10913 0.393892,0.044334 0.482561,0.133003c0.088668,0.085258 0.329096,-0.177337 0.659898,-0.2643c0.327391,-0.086963 0.284762,-0.066501 0.37343,-0.196094c0.086963,-0.133003 0.153465,-0.482561 0.349558,-0.746861c0.196094,-0.26089 0.462099,-0.722989 0.462099,-1.075957c0,-0.351263 -0.023872,-1.16292 -0.2643,-1.53294c-0.240428,-0.37343 -0.699116,-0.748566 -0.678654,-0.94466zm-0.809952,5.37467c-0.110836,-0.022167 -0.352968,-0.10572 -0.352968,-0.10572c-0.242133,0.240428 0.242133,0.240428 0.177337,0.482561c-0.066501,0.240428 0.329096,0.151759 0.438227,0.10913c0.107425,-0.046039 0.375136,-0.550767 0.329096,-0.68036c-0.042629,-0.134708 -0.482561,0.216556 -0.591691,0.194388zm8.140442,-1.009456c-0.088668,0 -0.131297,0.10913 -0.327391,0c-0.199504,-0.107425 -0.15517,-0.063091 -0.286467,-0.284762c-0.131297,-0.216556 -0.15517,-0.504728 -0.37343,-0.392187c-0.086963,0.042629 0,0.286467 0.086963,0.371725c0.090374,0.088668 0.131297,0.393892 0.10913,0.482561c-0.020462,0.088668 -0.393892,0.197799 -0.219966,0.306929c0.177337,0.10913 0.506433,0 0.462099,0.133003c-0.042629,0.131297 -0.219966,0.305224 -0.022167,0.349558c0.196094,0.042629 0.262595,-0.151759 0.352968,-0.303519c0.086963,-0.15858 0.151759,-0.288172 0.305224,-0.376841c0.153465,-0.088668 0,-0.286467 -0.086963,-0.286467zm0.020462,-5.112075c0.286467,0.10913 0.791195,-0.393892 0.591691,-0.460394c-0.196094,-0.066501 -0.591691,0.460394 -0.591691,0.460394zm-15.162298,-2.172376c-0.04945,0.196094 0.329096,0.284762 0.351263,0.066501c0.020462,-0.219966 -0.306929,-0.242133 -0.351263,-0.066501zm0.591691,-5.858936c-0.10913,0.110836 -0.438227,0.329096 -0.482561,0.5286c-0.042629,0.196094 0.526895,-0.310339 0.68036,-0.504728c0.15517,-0.199504 0.460394,-0.088668 0.52519,-0.199504c0.068206,-0.107425 0.068206,-0.107425 0.068206,-0.107425s-0.242133,-0.042629 -0.438227,-0.107425c-0.199504,-0.066501 -0.439932,0.173926 -0.329096,-0.177337c0.10913,-0.351263 0.438227,-0.284762 0.37343,-0.549062c-0.066501,-0.262595 -0.286467,-0.329096 -0.352968,-0.329096c-0.153465,0 0.022167,0.240428 -0.197799,0.393892c-0.218261,0.153465 -0.462099,0.218261 -0.329096,0.482561c0.131297,0.262595 0.591691,0.458689 0.482561,0.569524zm-1.732444,5.594636c0.022167,-0.129592 -0.242133,-0.327391 -0.351263,-0.327391c-0.110836,0 -0.658192,-0.131297 -0.658192,-0.131297c-0.098899,0.039219 -0.230197,0.076732 -0.269416,0.131297c-0.011936,-0.018757 -0.037514,-0.040924 -0.083553,-0.066501c-0.242133,-0.127887 -0.526895,0 -0.615563,-0.173926c-0.085258,-0.177337 -0.216556,-0.177337 -0.305224,-0.066501c-0.160285,0.199504 0.042629,0.351263 0.107425,0.393892c0.064796,0.040924 0.308634,0.088668 0.526895,0.066501c0.136413,-0.013641 0.308634,-0.046039 0.358084,-0.100605c0.006821,0.023872 0.027283,0.046039 0.059681,0.075027c0.175632,0.156875 0.284762,0.221671 0.547357,0.197799c0.266005,-0.017052 0.661603,0.134708 0.68377,0.001705zm-0.636025,-1.294218c0.110836,0 0.329096,0 0.482561,0.044334c0.153465,0.042629 0.658192,0.085258 0.636025,-0.10913c-0.022167,-0.196094 -0.064796,-0.506433 0.151759,-0.700821c0.221671,-0.199504 0.438227,-0.306929 0.329096,-0.593396c-0.107425,-0.284762 -0.329096,-0.462099 -0.175632,-0.595101c0.153465,-0.129592 0.327391,-0.173926 0.327391,-0.283057c0,-0.110836 -0.37002,0.306929 -0.416059,-0.41947c-0.008526,-0.15517 -0.351263,0.042629 -0.37343,0.197799c-0.020462,0.15517 0.242133,0.284762 -0.175632,0.284762c-0.417765,0 -0.438227,0.330801 -0.526895,0.395598c-0.088668,0.066501 -0.175632,0.086963 -0.352968,0.129592c-0.173926,0.044334 -0.216556,0.221671 -0.26089,0.330801c-0.042629,0.107425 -0.351263,-0.197799 -0.438227,-0.10913c-0.086963,0.088668 -0.022167,0.504728 0.131297,0.854286c0.156875,0.352968 0.550767,0.572934 0.661603,0.572934zm-1.538056,-0.10913c0.110836,-0.131297 0.064796,-0.327391 -0.107425,-0.306929c-0.175632,0.022167 -0.329096,-0.286467 -0.613858,-0.482561c-0.286467,-0.194388 -0.504728,-0.330801 -0.769028,-0.613858c-0.262595,-0.284762 -0.591691,-0.462099 -0.767323,-0.612153c-0.177337,-0.15517 -0.438227,-0.221671 -0.549062,-0.197799c-0.271121,0.054565 0.393892,0.526895 0.462099,0.589986c0.066501,0.069912 0.659898,0.571229 0.659898,0.815067s0.393892,0.811657 0.504728,0.89862c0.10913,0.088668 0.656487,0.416059 0.745156,0.593396c0.088668,0.175632 0.284762,0.221671 0.284762,-0.022167c-0.001705,-0.242133 0.042629,-0.5286 0.150054,-0.661603zm-1.665943,-2.479305c0.10913,0.395598 0.329096,0.791195 0.416059,0.946365c0.088668,0.151759 0.462099,0.37002 0.593396,0.47915c0.131297,0.10913 0.327391,-0.040924 0.243838,-0.173926c-0.088668,-0.133003 -0.2643,-0.327391 -0.284762,-0.482561c-0.022167,-0.15517 -0.133003,-0.397303 -0.308634,-0.659898c-0.173926,-0.26089 -0.327391,-0.327391 -0.438227,-0.503023c-0.10913,-0.177337 -0.504728,-0.506433 -0.504728,-0.506433c-0.173926,0.022167 -0.173926,0.349558 -0.086963,0.462099c0.083553,0.107425 0.26089,0.044334 0.37002,0.438227z" stroke-opacity="null" stroke-width="0.3" stroke="#000000" fill="#000000"/>
  <text xml:space="preserve" text-anchor="start" font-family="Helvetica, Arial, sans-serif" font-size="12" id="svg_119" y="225.617343" x="291.75664" fill-opacity="null" stroke-opacity="null" stroke-width="0" stroke="#000000" fill="#000000">画像</text>
  <text xml:space="preserve" text-anchor="start" font-family="Helvetica, Arial, sans-serif" font-size="12" id="svg_120" y="225.612572" x="327.824966" fill-opacity="null" stroke-opacity="null" stroke-width="0" stroke="#000000" fill="#000000">キャッチコピー</text>
  <text xml:space="preserve" text-anchor="start" font-family="Helvetica, Arial, sans-serif" font-size="12" id="svg_121" y="305.178183" x="276.437034" fill-opacity="null" stroke-opacity="null" stroke-width="0" stroke="#000000" fill="#000000">地図</text>
  <text xml:space="preserve" text-anchor="start" font-family="Helvetica, Arial, sans-serif" font-size="12" id="svg_122" y="305.174723" x="327.236328" fill-opacity="null" stroke-opacity="null" stroke-width="0" stroke="#000000" fill="#000000">作画</text>
  <path stroke="#000000" id="svg_125" d="m386.586602,261.340788c-0.067679,-0.101807 -0.151647,-0.201589 -0.258708,-0.278139c-0.45809,-0.333796 -1.10454,-0.231983 -1.440381,0.228715c-0.33527,0.461794 -0.229297,1.107247 0.229847,1.441983c0.417184,0.302296 0.973899,0.229815 1.329129,-0.125824l-9.747317,13.437111l-3.030302,10.999346l9.514358,-6.295661l21.667512,-29.869636l-6.486672,-4.70463l-2.091021,2.882865c-0.119621,-0.479568 -0.38672,-0.929825 -0.819609,-1.246784c-1.004359,-0.728239 -2.408496,-0.507943 -3.136289,0.498433c-4.170531,5.753257 -1.858569,7.285351 -5.730548,13.032221l0.000002,0zm-4.771872,17.984431l-4.894118,3.23864l1.558441,-5.662826l3.335679,2.424186l-0.000002,0zm5.765195,-18.277216c3.002466,-4.436014 2.716477,-5.638834 5.286067,-9.576251c0.425061,0.291702 0.913045,0.394601 1.392102,0.369344l-6.678169,9.206908l0,-0.000002z" stroke-opacity="null" stroke-width="0.3" fill="#000000"/>
  <text xml:space="preserve" text-anchor="start" font-family="Helvetica, Arial, sans-serif" font-size="12" id="svg_126" y="305.172338" x="377.266926" fill-opacity="null" stroke-opacity="null" stroke-width="0" stroke="#000000" fill="#000000">文章</text>
  <path stroke="#000000" id="svg_127" d="m327.444156,276.342909l-8.650816,8.649127l43.478711,0l0,-43.477022l-34.827895,34.827895zm20.389038,-19.11219c0.314145,-0.309078 0.810697,-0.309078 1.121465,0l1.959185,1.957496c0.310767,0.309078 0.314145,0.810697 0.003378,1.119776c-0.155384,0.153695 -0.359747,0.231387 -0.560732,0.231387c-0.204363,0 -0.405349,-0.077692 -0.557354,-0.231387l-1.965941,-1.957496c-0.309078,-0.309078 -0.309078,-0.809008 0,-1.119776zm-2.704013,2.70908c0.310767,-0.309078 0.810697,-0.309078 1.118087,0l3.641382,3.638004c0.310767,0.309078 0.310767,0.810697 0.003378,1.116398c-0.155384,0.155384 -0.359747,0.234764 -0.56411,0.234764s-0.405349,-0.077692 -0.557354,-0.231387l-3.641382,-3.638004c-0.310767,-0.309078 -0.310767,-0.810697 0,-1.119776zm-2.70908,2.704013c0.310767,-0.309078 0.810697,-0.309078 1.121465,0l1.959185,1.960874c0.310767,0.309078 0.307389,0.810697 -0.003378,1.119776c-0.155384,0.155384 -0.356369,0.233075 -0.557354,0.233075c-0.204363,0 -0.405349,-0.077692 -0.560732,-0.233075l-1.959185,-1.959185c-0.309078,-0.309078 -0.309078,-0.812386 0,-1.121465zm-2.704013,2.707391c0.310767,-0.309078 0.810697,-0.3057 1.121465,0.003378l1.955807,1.957496c0.309078,0.310767 0.309078,0.810697 0,1.119776c-0.155384,0.155384 -0.358058,0.233075 -0.560732,0.233075c-0.200985,0 -0.405349,-0.077692 -0.560732,-0.233075l-1.955807,-1.960874c-0.309078,-0.310767 -0.309078,-0.810697 0,-1.119776zm-2.707391,2.70908c0.309078,-0.310767 0.809008,-0.310767 1.119776,0l3.638004,3.636315c0.310767,0.310767 0.310767,0.812386 0,1.123154c-0.155384,0.155384 -0.356369,0.233075 -0.557354,0.233075c-0.204363,0 -0.408727,-0.077692 -0.56411,-0.233075l-3.636315,-3.639693c-0.309078,-0.310767 -0.309078,-0.810697 0,-1.119776zm-3.362705,12.874887c-0.153695,0.157073 -0.358058,0.234764 -0.560732,0.234764c-0.200985,0 -0.401971,-0.076003 -0.557354,-0.231387l-3.638004,-3.636315c-0.310767,-0.309078 -0.310767,-0.809008 0,-1.119776s0.809008,-0.310767 1.118087,0l3.638004,3.636315c0.309078,0.307389 0.309078,0.807319 0,1.116398zm1.030261,-4.38621c-0.157073,0.157073 -0.361436,0.234764 -0.562421,0.234764c-0.202674,0 -0.405349,-0.076003 -0.557354,-0.231387l-1.962563,-1.960874c-0.310767,-0.309078 -0.310767,-0.809008 0,-1.114709c0.310767,-0.312456 0.810697,-0.315834 1.121465,-0.005067l1.960874,1.962563c0.309078,0.304012 0.309078,0.80563 0,1.114709zm2.704013,-2.705702c-0.155384,0.155384 -0.356369,0.233075 -0.560732,0.233075c-0.200985,0 -0.40366,-0.077692 -0.559043,-0.233075l-1.957496,-1.959185c-0.310767,-0.310767 -0.310767,-0.810697 0,-1.121465s0.810697,-0.307389 1.119776,0.003378l1.957496,1.960874c0.309078,0.309078 0.309078,0.810697 0,1.116398zm16.445333,2.704013l-14.643221,0l14.643221,-14.643221l0,14.643221zm-0.202674,-18.944983c-0.152006,0.155384 -0.356369,0.233075 -0.557354,0.233075c-0.204363,0 -0.408727,-0.077692 -0.56411,-0.233075l-1.959185,-1.957496c-0.310767,-0.309078 -0.310767,-0.809008 0,-1.119776c0.307389,-0.309078 0.809008,-0.309078 1.118087,0l1.959185,1.957496c0.310767,0.310767 0.312456,0.810697 0.003378,1.119776zm4.384521,-1.026883c-0.155384,0.155384 -0.359747,0.231387 -0.560732,0.231387s-0.405349,-0.076003 -0.557354,-0.231387l-3.638004,-3.638004c-0.310767,-0.309078 -0.310767,-0.812386 0,-1.121465s0.814075,-0.3057 1.121465,0.003378l3.638004,3.638004c0.309078,0.309078 0.3057,0.810697 -0.003378,1.118087z" stroke-opacity="null" stroke-width="0.3" fill="#000000"/>
  <path stroke="#000000" id="svg_128" d="m355.940393,321.037247l-7.666623,0l0,-3.066649l-19.166557,0l0,3.066649l-7.666623,0c-2.257054,0 -4.088866,1.831812 -4.088866,4.088866l0,21.21099c0,2.257054 1.831812,4.088866 4.088866,4.088866l34.499803,0c2.257054,0 4.088866,-1.831812 4.088866,-4.088866l0,-21.21099c0,-2.257054 -1.831812,-4.088866 -4.088866,-4.088866zm-17.250924,27.08669c-6.832494,0 -12.389263,-5.558813 -12.389263,-12.391307c0,-6.832494 5.556768,-12.393352 12.389263,-12.393352s12.393352,5.560857 12.393352,12.393352c0,6.832494 -5.562902,12.391307 -12.393352,12.391307zm0,-20.697838c-4.587707,0 -8.304486,3.718823 -8.304486,8.304486c0,4.587707 3.718823,8.304486 8.304486,8.304486c4.587707,0 8.304486,-3.716779 8.304486,-8.304486c0.002044,-4.585663 -3.714734,-8.304486 -8.304486,-8.304486z" stroke-opacity="null" stroke-width="0.3" fill="#000000"/>
  <text xml:space="preserve" text-anchor="start" font-family="Helvetica, Arial, sans-serif" font-size="12" id="svg_129" y="364.743191" x="326.697102" fill-opacity="null" stroke-opacity="null" stroke-width="0" stroke="#000000" fill="#000000">動画</text>
  <text font-weight="bold" stroke="#000000" xml:space="preserve" text-anchor="start" font-family="Helvetica, Arial, sans-serif" font-size="10" id="svg_141" y="401.268724" x="276.395705" fill-opacity="null" stroke-width="0" fill="#000000">→ しっかりとした作り込み</text>
  <text font-weight="bold" xml:space="preserve" text-anchor="start" font-family="Helvetica, Arial, sans-serif" font-size="10" id="svg_142" y="342.137749" x="48.841868" fill-opacity="null" stroke-width="0" stroke="#000000" fill="#000000">→ きちんと聞き込み</text>
  <text xml:space="preserve" text-anchor="start" font-family="Helvetica, Arial, sans-serif" font-size="6" id="svg_147" y="819.312405" x="170.628857" fill-opacity="null" stroke-opacity="null" stroke-width="0" stroke="#a4ffff" fill="#000000">© 2020 PAUOLE.JP All Rights Reserved.</text>
 </g>
</svg>